<svg width="81" height="22" viewBox="0 0 81 22" fill="none" xmlns="http://www.w3.org/2000/svg">
<path fill-rule="evenodd" clip-rule="evenodd" d="M54.2459 13.6393H58.9672V7.34426H54.2459C53.4313 7.34426 52.6721 8.10527 52.6721 8.91803V12.0656C52.6721 12.8785 53.4313 13.6393 54.2459 13.6393ZM73.1312 13.6393H77.8525V7.34426H73.1312C72.3165 7.34426 71.5574 8.10527 71.5574 8.91803V12.0656C71.5574 12.8785 72.3165 13.6393 73.1312 13.6393ZM62.1148 4.98361V16C62.1148 16.3472 61.6761 16.7869 61.3279 16.7869L59.7544 16.8034C59.4059 16.8034 58.9672 16.3473 58.9672 16V15.4754L58.2532 16.3329C58.0356 16.6287 57.4989 16.7869 57.1312 16.7869H54.2459C51.7143 16.7869 49.5246 14.5913 49.5246 12.0656V8.91803C49.5246 6.3923 51.7143 4.19672 54.2459 4.19672H61.3279C61.6756 4.19672 62.1148 4.63679 62.1148 4.98361ZM81 4.98361V16C81 16.3472 80.5614 16.7869 80.2131 16.7869L78.6396 16.8034C78.2911 16.8034 77.8525 16.3473 77.8525 16V15.4754L77.1384 16.3329C76.9209 16.6287 76.3841 16.7869 76.0164 16.7869H73.1312C70.5995 16.7869 68.4099 14.5913 68.4099 12.0656V8.91803C68.4099 6.3923 70.5995 4.19672 73.1312 4.19672H80.2131C80.5609 4.19672 81 4.63679 81 4.98361ZM28.541 7.34426H23.8197C23.0049 7.34426 22.2459 8.10527 22.2459 8.91803V12.0656C22.2459 12.8786 23.0049 13.6393 23.8197 13.6393H28.541V7.34426ZM31.6885 4.98361V17.0492C31.6885 19.5749 29.4989 21.5082 26.9672 21.5082H24.5344C24.1724 21.5082 23.8313 21.3389 23.6129 21.0507L22.2281 19.2223C21.9981 18.9187 22.1268 18.3607 22.5082 18.3607H26.9672C27.7819 18.3607 28.541 17.8619 28.541 17.0492V16.7869H23.8197C21.2882 16.7869 19.0984 14.5913 19.0984 12.0656V8.91803C19.0984 6.39242 21.2882 4.19672 23.8197 4.19672H26.7049C27.066 4.19672 27.4595 4.48717 27.7144 4.72131L28.541 5.5082V4.98361C28.541 4.63691 28.9805 4.19672 29.3279 4.19672H30.9017C31.2498 4.19672 31.6885 4.63619 31.6885 4.98361ZM3.36068 12.0656C3.36068 12.8783 4.11978 13.6393 4.93445 13.6393H9.65576V7.34426H4.93445C4.11978 7.34426 3.36068 8.10527 3.36068 8.91803V12.0656ZM12.0164 0C12.3648 0 12.8033 0.439592 12.8033 0.786885V16C12.8033 16.3472 12.3648 16.7869 12.0164 16.7869H10.4426C10.0944 16.7869 9.65576 16.3474 9.65576 16V15.4754L8.83063 16.3584C8.60709 16.6066 8.176 16.7869 7.81969 16.7869H4.93445C2.4028 16.7869 0.213135 14.5913 0.213135 12.0656V8.94205C0.213135 6.41632 2.4028 4.19672 4.93445 4.19672H9.65576V0.786885C9.65576 0.439592 10.0944 0 10.4426 0H12.0164ZM44.541 10.4918L48.9216 4.94693C49.1653 4.64473 48.9498 4.19563 48.5611 4.19563H46.0556C45.8662 4.19563 45.6868 4.28071 45.5669 4.42724L41.1312 9.96721V0.786885C41.1312 0.439592 40.6924 0 40.3443 0H38.7705C38.4223 0 37.9836 0.439592 37.9836 0.786885V16C37.9836 16.3473 38.4223 16.7869 38.7705 16.7869H40.3443C40.6925 16.7869 41.1312 16.3473 41.1312 16V11.0164L45.5693 16.5686C45.689 16.7169 45.8695 16.8034 46.0605 16.8034H48.5634C48.952 16.8034 49.1678 16.3541 48.924 16.052L44.541 10.4918ZM34.0492 0C33.7012 0 33.2623 0.439592 33.2623 0.786885V2.36066C33.2623 2.70795 33.7012 3.14754 34.0492 3.14754H35.623C35.9711 3.14754 36.4099 2.70795 36.4099 2.36066V0.786885C36.4099 0.439592 35.9711 0 35.623 0H34.0492ZM34.0492 4.19672C33.7012 4.19672 33.2623 4.63643 33.2623 4.98361V16C33.2623 16.3472 33.8246 16.8033 34.1726 16.8033L35.623 16.7869C35.9711 16.7869 36.4099 16.3472 36.4099 16V4.98361C36.4099 4.63643 35.9711 4.19672 35.623 4.19672H34.0492ZM15.164 0C14.8158 0 14.3771 0.439592 14.3771 0.786885V2.36066C14.3771 2.70795 14.8158 3.14754 15.164 3.14754H16.7377C17.0858 3.14754 17.5246 2.70795 17.5246 2.36066V0.786885C17.5246 0.439592 17.0858 0 16.7377 0H15.164ZM15.164 4.19672C14.8158 4.19672 14.3771 4.63643 14.3771 4.98361V16C14.3771 16.3472 14.8158 16.7869 15.164 16.7869H16.7377C17.0858 16.7869 17.5246 16.3472 17.5246 16V4.98361C17.5246 4.63643 17.0858 4.19672 16.7377 4.19672H15.164ZM66.8361 0.786885V16C66.8361 16.3472 66.3974 16.7869 66.0492 16.7869H64.4754C64.1272 16.7869 63.6885 16.3472 63.6885 16V0.786885C63.6885 0.439592 64.1272 0 64.4754 0H66.0492C66.3974 0 66.8361 0.439592 66.8361 0.786885Z" fill="#6D6E71"/>
</svg>
