<svg width="77" height="8" viewBox="0 0 77 8" fill="none" xmlns="http://www.w3.org/2000/svg">
<path d="M3.9018 7.99996C3.15367 7.99996 2.52423 7.83422 2.01349 7.50275C1.50274 7.16407 1.14306 6.70649 0.934448 6.13002L2.20771 5.38421C2.50265 6.15524 3.08174 6.54076 3.94497 6.54076C4.36219 6.54076 4.66792 6.4651 4.86215 6.31377C5.05638 6.16245 5.15349 5.97149 5.15349 5.7409C5.15349 5.47428 5.03479 5.26892 4.79741 5.1248C4.56002 4.97347 4.1356 4.81134 3.52414 4.6384C3.18604 4.53752 2.8983 4.43663 2.66091 4.33575C2.43072 4.23487 2.19692 4.10156 1.95954 3.93582C1.72934 3.76288 1.5531 3.5467 1.43081 3.28729C1.30851 3.02788 1.24737 2.72523 1.24737 2.37935C1.24737 1.69479 1.48835 1.15074 1.97033 0.747209C2.45949 0.336472 3.04577 0.131104 3.72916 0.131104C4.34061 0.131104 4.87654 0.282428 5.33693 0.585076C5.80451 0.880518 6.16779 1.29486 6.42676 1.8281L5.17507 2.55229C4.87294 1.90376 4.39097 1.57949 3.72916 1.57949C3.41983 1.57949 3.17525 1.65155 2.99541 1.79567C2.82277 1.93258 2.73644 2.11273 2.73644 2.33611C2.73644 2.57391 2.83356 2.76847 3.02778 2.91979C3.2292 3.06391 3.61046 3.22244 4.17156 3.39538C4.40176 3.46744 4.57441 3.52509 4.6895 3.56832C4.81179 3.60435 4.97365 3.6656 5.17507 3.75207C5.38368 3.83134 5.54194 3.907 5.64985 3.97906C5.76494 4.05112 5.89443 4.1484 6.0383 4.2709C6.18217 4.3934 6.29008 4.5195 6.36201 4.64921C6.44114 4.77891 6.50588 4.93744 6.55624 5.1248C6.61379 5.30495 6.64256 5.50311 6.64256 5.71929C6.64256 6.41826 6.38719 6.97311 5.87644 7.38385C5.37289 7.79459 4.71468 7.99996 3.9018 7.99996Z" fill="#F9B617"/>
<path d="M9.05017 6.42186H12.2333V7.84863H7.56109V0.282428H12.1794V1.7092H9.05017V3.31972H11.9096V4.72487H9.05017V6.42186Z" fill="#F9B617"/>
<path d="M14.772 6.42186H17.6531V7.84863H13.2829V0.282428H14.772V6.42186Z" fill="#F9B617"/>
<path d="M19.9881 6.42186H22.8691V7.84863H18.499V0.282428H19.9881V6.42186Z" fill="#F9B617"/>
<path d="M25.2041 6.42186H28.3873V7.84863H23.7151V0.282428H28.3333V1.7092H25.2041V3.31972H28.0636V4.72487H25.2041V6.42186Z" fill="#F9B617"/>
<path d="M33.5804 7.84863L32.059 5.22208H30.926V7.84863H29.4369V0.282428H32.4582C33.156 0.282428 33.7495 0.527428 34.2386 1.01743C34.7278 1.50743 34.9724 2.09832 34.9724 2.79008C34.9724 3.25847 34.8393 3.69443 34.5731 4.09796C34.307 4.49428 33.9545 4.79333 33.5157 4.99509L35.1882 7.84863H33.5804ZM30.926 1.67677V3.91421H32.4582C32.7388 3.91421 32.9798 3.80612 33.1812 3.58994C33.3826 3.36656 33.4833 3.09994 33.4833 2.79008C33.4833 2.48023 33.3826 2.21721 33.1812 2.00104C32.9798 1.78486 32.7388 1.67677 32.4582 1.67677H30.926Z" fill="#F9B617"/>
<path d="M42.345 7.99996C41.2084 7.99996 40.2696 7.62165 39.5287 6.86503C38.7878 6.1084 38.4173 5.17524 38.4173 4.06553C38.4173 2.94861 38.7878 2.01545 39.5287 1.26603C40.2696 0.509414 41.2084 0.131104 42.345 0.131104C43.0284 0.131104 43.6578 0.293236 44.2333 0.617502C44.816 0.934563 45.2692 1.36692 45.5929 1.91457L44.3088 2.66038C44.1218 2.3217 43.8557 2.05868 43.5104 1.87133C43.1651 1.67677 42.7766 1.57949 42.345 1.57949C41.6113 1.57949 41.0178 1.81008 40.5646 2.27126C40.1186 2.73244 39.8956 3.33053 39.8956 4.06553C39.8956 4.79333 40.1186 5.38781 40.5646 5.84899C41.0178 6.31017 41.6113 6.54076 42.345 6.54076C42.7766 6.54076 43.1651 6.44708 43.5104 6.25973C43.8628 6.06517 44.129 5.80215 44.3088 5.47068L45.5929 6.21649C45.2692 6.76414 44.8196 7.2001 44.2441 7.52437C43.6686 7.84143 43.0356 7.99996 42.345 7.99996Z" fill="#F9B617"/>
<path d="M47.9967 6.42186H51.1799V7.84863H46.5076V0.282428H51.1259V1.7092H47.9967V3.31972H50.8562V4.72487H47.9967V6.42186Z" fill="#F9B617"/>
<path d="M56.5996 0.282428H58.0887V7.84863H56.9557L53.7186 3.22244V7.84863H52.2295V0.282428H53.3625L56.5996 4.89781V0.282428Z" fill="#F9B617"/>
<path d="M64.4858 0.282428V1.7092H62.4464V7.84863H60.9573V1.7092H58.9287V0.282428H64.4858Z" fill="#F9B617"/>
<path d="M66.8061 6.42186H69.9893V7.84863H65.3171V0.282428H69.9353V1.7092H66.8061V3.31972H69.6656V4.72487H66.8061V6.42186Z" fill="#F9B617"/>
<path d="M75.1824 7.84863L73.661 5.22208H72.528V7.84863H71.0389V0.282428H74.0602C74.758 0.282428 75.3515 0.527428 75.8406 1.01743C76.3298 1.50743 76.5744 2.09832 76.5744 2.79008C76.5744 3.25847 76.4413 3.69443 76.1751 4.09796C75.909 4.49428 75.5565 4.79333 75.1177 4.99509L76.7902 7.84863H75.1824ZM72.528 1.67677V3.91421H74.0602C74.3408 3.91421 74.5818 3.80612 74.7832 3.58994C74.9846 3.36656 75.0853 3.09994 75.0853 2.79008C75.0853 2.48023 74.9846 2.21721 74.7832 2.00104C74.5818 1.78486 74.3408 1.67677 74.0602 1.67677H72.528Z" fill="#F9B617"/>
</svg>
